<?xml version="1.0" standalone="no"?>
<!DOCTYPE svg PUBLIC "-//W3C//DTD SVG 20010904//EN"
 "http://www.w3.org/TR/2001/REC-SVG-20010904/DTD/svg10.dtd">
<svg version="1.0" xmlns="http://www.w3.org/2000/svg"
 width="2624.000000pt" height="2624.000000pt" viewBox="0 0 2624.000000 2624.000000"
 preserveAspectRatio="xMidYMid meet">
<metadata>
Created by potrace 1.14, written by Peter Selinger 2001-2017
</metadata>
<g transform="translate(0.000000,2624.000000) scale(0.100000,-0.100000)"
fill="#000000" stroke="none">
<path d="M22095 17582 c-3 -3 -29 -7 -58 -9 -28 -1 -65 -5 -82 -8 -16 -3 -48
-7 -70 -10 -22 -2 -51 -7 -65 -10 -14 -3 -41 -8 -60 -11 -33 -4 -53 -8 -102
-19 -13 -3 -34 -7 -47 -10 -13 -2 -47 -11 -75 -19 -28 -8 -62 -17 -76 -20 -14
-2 -44 -11 -68 -20 -23 -8 -44 -15 -47 -16 -3 0 -6 0 -7 -1 -2 0 -10 -2 -18
-4 -21 -5 -197 -70 -245 -90 -61 -26 -105 -46 -155 -69 -25 -11 -48 -20 -52
-19 -3 1 -12 -4 -18 -12 -7 -8 -21 -15 -30 -15 -10 0 -20 -3 -22 -7 -1 -5 -17
-15 -34 -24 -17 -9 -64 -34 -105 -55 -41 -21 -76 -41 -79 -45 -3 -3 -16 -12
-30 -19 -32 -17 -187 -118 -221 -144 -14 -12 -36 -28 -49 -36 -41 -27 -143
-109 -228 -185 -54 -48 -244 -235 -239 -235 2 0 -19 -23 -45 -51 -57 -61 -197
-240 -253 -324 -22 -33 -45 -66 -52 -72 -6 -7 -15 -22 -18 -33 -3 -11 -11 -20
-16 -20 -6 0 -8 -4 -5 -9 4 -5 3 -11 -2 -13 -21 -8 -213 -384 -224 -438 -2 -8
-5 -17 -8 -20 -12 -11 -88 -245 -105 -320 -2 -8 -4 -15 -5 -15 -2 0 -4 -9 -26
-105 -9 -41 -18 -84 -20 -95 -1 -11 -6 -31 -9 -45 -3 -14 -8 -41 -10 -60 -5
-52 -16 -131 -21 -160 -27 -156 -22 -610 9 -825 4 -22 9 -60 13 -85 7 -51 12
-75 14 -75 1 0 3 -11 4 -25 1 -14 5 -34 9 -45 3 -11 9 -33 11 -50 3 -16 13
-57 22 -90 8 -33 17 -67 19 -75 5 -21 54 -171 64 -195 5 -11 19 -47 32 -80 12
-33 40 -96 61 -140 21 -44 38 -86 38 -92 0 -7 4 -13 8 -13 4 0 19 -25 32 -55
13 -30 28 -55 32 -55 4 0 8 -5 8 -10 0 -6 12 -29 27 -53 14 -23 25 -42 22 -42
-2 0 2 -7 9 -15 7 -8 45 -62 84 -120 136 -201 315 -407 477 -550 97 -86 106
-93 141 -120 17 -14 44 -35 58 -47 15 -13 30 -23 35 -23 4 0 16 -8 26 -17 31
-28 50 -43 55 -43 3 0 35 -21 71 -46 37 -25 78 -49 91 -54 13 -5 24 -14 24
-20 0 -5 9 -10 19 -10 11 0 23 -4 26 -10 6 -9 290 -155 308 -158 4 -1 28 -10
53 -22 26 -11 52 -20 58 -20 7 0 16 -4 22 -8 5 -5 29 -15 54 -22 25 -8 50 -17
55 -21 6 -3 37 -14 70 -22 33 -9 94 -25 135 -37 41 -11 89 -22 105 -25 17 -3
50 -10 75 -15 49 -10 118 -22 138 -23 17 -1 15 -10 -6 -33 -10 -10 -29 -35
-42 -54 -13 -19 -28 -39 -32 -45 -48 -59 -118 -157 -118 -164 0 -5 -4 -11 -8
-13 -7 -2 -74 -91 -150 -196 -9 -13 -25 -33 -34 -44 -10 -12 -18 -24 -18 -27
0 -3 -13 -21 -28 -38 -15 -18 -44 -56 -65 -85 -21 -29 -71 -97 -110 -150 -40
-53 -97 -131 -127 -172 -30 -42 -59 -76 -64 -76 -5 0 -7 -3 -3 -6 3 -3 -11
-27 -31 -53 -20 -26 -46 -60 -57 -75 -25 -35 -72 -97 -84 -112 -5 -6 -32 -44
-61 -84 -29 -40 -56 -78 -61 -84 -5 -6 -39 -51 -76 -101 -37 -49 -71 -93 -77
-97 -7 -5 -7 -8 -1 -8 6 0 6 -3 0 -8 -6 -4 -45 -54 -88 -112 -42 -58 -80 -110
-84 -115 -5 -6 -21 -28 -38 -50 -16 -22 -33 -41 -37 -43 -4 -2 -8 -8 -8 -13 0
-8 -51 -80 -70 -99 -3 -3 -16 -21 -30 -40 -13 -19 -28 -39 -32 -45 -5 -5 -45
-59 -89 -120 -44 -60 -92 -124 -106 -141 -14 -18 -33 -43 -42 -57 -9 -14 -31
-46 -49 -71 l-33 -46 1364 0 1364 0 39 55 c21 30 42 55 47 55 4 0 7 6 7 13 0
6 13 26 28 44 15 18 43 54 62 80 19 26 40 54 47 63 6 8 43 58 82 110 38 52 74
100 78 105 5 6 30 39 56 75 83 112 92 123 105 136 6 7 12 15 12 17 0 2 72 101
159 218 314 421 384 513 393 517 5 2 8 8 8 14 0 5 19 33 43 63 23 29 71 93
107 142 36 48 68 92 73 98 4 5 24 33 45 60 20 28 40 51 45 53 4 2 7 10 7 17 0
7 3 15 8 17 4 2 40 48 81 103 41 55 81 106 88 113 7 7 13 16 13 20 0 4 11 19
24 35 13 15 34 43 47 62 13 19 27 35 32 35 4 0 7 7 7 15 0 8 5 15 10 15 6 0
10 6 10 14 0 8 4 16 8 18 5 2 28 30 53 63 24 33 47 61 52 63 4 2 7 10 7 17 0
7 4 15 8 17 5 2 28 30 52 63 24 33 47 61 52 63 4 2 8 8 8 14 0 5 6 16 13 23
16 18 23 28 77 100 24 33 48 65 52 70 54 68 88 116 88 120 0 4 6 13 13 20 26
30 38 47 116 157 45 62 88 122 97 133 8 11 50 72 92 135 42 63 79 117 82 120
5 5 152 231 175 271 85 143 130 215 139 221 6 4 8 8 3 8 -4 0 4 18 18 40 14
22 25 44 25 49 0 5 3 11 8 13 4 2 23 36 42 76 19 39 38 72 42 72 5 0 8 6 8 14
0 8 18 50 39 93 33 64 67 138 76 163 5 15 19 49 30 75 16 38 70 205 85 265 6
25 14 52 17 60 3 8 7 26 9 40 1 14 5 36 9 50 17 74 36 187 41 245 1 17 3 30 4
30 2 0 6 35 15 165 9 123 10 262 3 266 -3 2 -3 17 2 33 4 16 6 31 4 34 -3 2
-7 44 -9 92 -4 89 -12 178 -22 250 -3 22 -6 49 -7 60 -3 24 -12 74 -33 175 -8
41 -16 84 -19 95 -7 36 -64 240 -73 260 -5 11 -19 48 -31 83 -12 35 -28 79
-36 97 -8 19 -13 36 -12 37 1 2 -5 17 -14 33 -9 17 -39 79 -68 138 -55 114
-198 357 -231 393 -10 11 -19 26 -19 32 0 7 -4 12 -10 12 -5 0 -10 6 -10 14 0
8 -3 16 -7 18 -5 2 -30 32 -57 68 -27 36 -54 70 -60 75 -6 6 -24 28 -41 50
-35 47 -279 293 -350 353 -27 23 -57 48 -65 55 -8 7 -33 27 -55 43 -39 28 -47
35 -79 62 -8 6 -19 12 -25 12 -5 0 -11 4 -13 9 -1 5 -46 36 -98 70 -52 33 -99
64 -105 68 -5 5 -35 21 -65 37 -30 16 -58 34 -62 40 -4 6 -8 7 -8 2 0 -5 -9
-1 -20 9 -11 10 -20 15 -20 11 0 -4 -13 2 -28 13 -33 23 -227 117 -322 156
-36 14 -78 32 -95 40 -16 7 -41 16 -55 20 -14 3 -34 10 -45 15 -19 8 -124 43
-135 45 -3 0 -21 6 -40 13 -19 6 -46 14 -60 16 -14 3 -25 5 -25 6 0 1 -11 4
-25 6 -14 3 -43 9 -65 15 -59 16 -123 29 -225 45 -19 3 -46 7 -60 10 -14 2
-43 7 -65 9 -22 2 -65 7 -95 11 -71 8 -637 14 -645 6z m465 -2126 c14 -2 39
-7 55 -10 160 -28 314 -100 459 -215 32 -25 168 -162 197 -198 47 -57 172
-270 168 -286 0 -1 2 -9 5 -17 38 -114 70 -255 62 -276 -3 -8 -2 -15 2 -18 13
-8 4 -310 -11 -366 -2 -8 -7 -36 -12 -62 -4 -27 -12 -48 -17 -48 -5 0 -7 -4
-4 -9 3 -5 -1 -25 -9 -45 -8 -20 -13 -36 -11 -36 3 0 -13 -36 -35 -81 -46 -95
-120 -206 -178 -269 -22 -25 -41 -48 -41 -52 0 -5 -4 -8 -10 -8 -5 0 -20 -10
-33 -22 -47 -46 -87 -78 -97 -78 -5 0 -10 -4 -10 -10 0 -5 -7 -10 -15 -10 -8
0 -15 -4 -15 -8 0 -4 -15 -15 -32 -24 -18 -9 -55 -27 -83 -41 -46 -23 -119
-52 -155 -62 -82 -21 -155 -35 -205 -41 -73 -7 -237 -11 -249 -5 -5 2 -30 6
-55 8 -25 2 -53 6 -61 9 -8 3 -33 8 -55 11 -21 2 -44 7 -50 11 -5 3 -18 8 -28
9 -10 2 -31 10 -48 18 -16 9 -29 13 -29 10 0 -8 -165 76 -168 86 -2 5 -8 9
-14 9 -10 0 -87 52 -119 80 -65 57 -146 141 -167 173 -13 20 -28 37 -32 37 -4
0 -10 8 -13 18 -6 17 -38 73 -47 82 -5 5 -59 123 -75 165 -10 24 -12 33 -19
63 -3 13 -7 31 -10 40 -40 133 -45 385 -11 572 7 44 24 110 32 130 3 8 7 20 8
26 12 51 117 253 153 292 7 8 25 30 39 49 90 117 279 263 413 317 98 40 115
46 149 52 14 3 29 8 35 11 10 7 13 7 111 18 32 3 61 8 63 10 5 5 241 -2 272
-9z"/>
<path d="M6723 17522 l-82 -3 240 -239 239 -240 -1200 -1200 -1200 -1200
-1121 1121 -1120 1120 -117 -1 c-64 0 -126 0 -137 0 -11 1 -26 1 -32 1 -19 -1
-36 -1 -103 -2 -33 0 -72 0 -87 0 -16 -1 -43 1 -61 4 -18 2 -35 0 -38 -4 -3
-5 -10 -7 -15 -3 -5 3 -33 5 -62 5 -69 -1 -82 -1 -112 -1 -14 0 -31 -1 -37 -1
-7 0 -26 0 -43 0 -16 1 -39 1 -50 1 -15 -1 -261 -1 -320 -1 -5 0 -75 0 -155 0
-80 0 -154 1 -165 1 -11 1 -26 1 -32 1 -19 -1 -36 -1 -103 -2 -33 0 -72 0 -87
0 -16 -1 -43 1 -61 4 -18 2 -35 0 -38 -4 -3 -5 -10 -7 -15 -3 -5 3 -33 5 -62
5 -69 -1 -82 -1 -112 -1 -14 0 -31 -1 -37 -1 -7 0 -26 0 -43 0 -16 1 -37 1
-45 1 -8 -1 -73 0 -145 0 -72 1 -138 1 -147 1 -17 -1 -18 -206 -18 -4161 l0
-4160 1245 0 c1230 0 1246 0 1235 19 -7 14 -7 22 0 26 8 5 8 11 0 20 -8 10 -8
19 0 34 8 15 8 21 0 21 -6 0 -8 5 -5 11 10 15 12 79 3 79 -3 0 -3 14 2 30 5
17 6 30 2 30 -9 0 -8 53 2 68 3 6 2 13 -4 17 -6 4 -8 11 -4 16 9 16 10 79 1
79 -4 0 -3 9 3 19 7 13 7 22 0 26 -7 4 -7 13 0 24 6 12 5 22 -1 28 -8 8 -7 17
0 32 8 15 9 21 1 21 -6 0 -8 5 -5 11 10 15 12 79 3 79 -3 0 -3 14 2 30 5 17 6
30 2 30 -9 0 -8 53 2 68 3 6 2 13 -4 17 -6 4 -8 11 -4 16 9 16 10 79 1 79 -4
0 -3 9 3 19 7 13 7 22 0 26 -7 4 -7 13 0 24 6 12 5 22 -1 28 -8 8 -7 17 0 32
8 15 9 21 1 21 -6 0 -8 5 -5 11 10 15 12 79 3 79 -3 0 -3 14 2 30 5 17 6 30 2
30 -9 0 -8 53 2 68 3 6 2 13 -4 17 -6 4 -8 11 -4 16 9 16 10 79 1 79 -4 0 -3
9 3 19 7 13 7 22 0 26 -7 4 -7 13 0 24 6 12 5 22 -1 28 -8 8 -7 17 0 32 8 15
9 21 1 21 -6 0 -8 5 -5 11 10 15 12 79 3 79 -3 0 -3 14 2 30 5 17 6 30 2 30
-9 0 -8 53 2 68 3 6 2 13 -4 17 -6 4 -8 11 -4 16 9 16 10 79 1 79 -4 0 -3 9 3
19 7 13 7 22 0 26 -7 4 -7 13 0 24 6 12 5 22 -1 28 -8 8 -7 17 0 32 8 15 9 21
1 21 -6 0 -8 5 -5 11 10 15 12 79 3 79 -3 0 -3 14 2 30 5 17 6 30 2 30 -9 0
-8 53 2 68 3 6 2 13 -4 17 -7 4 -6 14 2 28 6 12 11 22 11 22 0 0 -5 10 -11 22
-8 14 -9 24 -2 28 7 4 7 12 0 25 -7 13 -7 21 0 25 7 4 7 12 0 25 -7 13 -7 21
0 25 7 4 7 12 0 24 -5 10 -6 21 -3 25 8 8 10 66 2 66 -4 0 -3 15 1 34 4 18 3
40 -1 49 -6 10 -5 18 1 22 7 4 7 12 0 25 -7 13 -7 21 0 25 7 4 7 12 0 25 -7
13 -7 21 0 25 7 4 7 12 0 24 -5 10 -6 21 -3 25 8 8 10 66 2 66 -4 0 -3 15 1
34 4 18 3 40 -1 49 -6 10 -5 18 1 22 7 4 7 12 0 25 -7 13 -7 21 0 25 7 4 7 12
0 25 -7 13 -7 21 0 25 7 4 7 12 0 24 -5 10 -6 21 -3 25 8 8 10 66 2 66 -4 0
-3 15 1 34 4 18 3 40 -1 49 -6 10 -5 18 1 22 7 4 7 12 0 25 -7 13 -7 21 0 25
7 4 7 12 0 25 -7 13 -7 21 0 25 7 4 7 12 0 24 -5 10 -6 21 -3 25 8 8 10 66 2
66 -4 0 -3 15 1 34 4 18 3 40 -1 49 -6 10 -5 18 1 22 7 4 7 12 0 25 -7 13 -7
21 0 25 7 4 7 12 0 25 -7 13 -7 21 0 25 7 4 7 12 0 24 -5 10 -6 21 -3 25 8 8
10 66 2 66 -4 0 -3 15 1 34 4 18 3 40 -1 49 -6 10 -5 18 1 22 7 4 7 12 0 25
-7 13 -7 21 0 25 7 4 7 12 0 25 -7 13 -7 21 0 25 7 4 7 12 0 24 -5 10 -6 21
-3 25 8 8 10 66 2 66 -4 0 -3 15 1 34 4 18 3 40 -1 49 -6 10 -5 18 1 22 7 4 7
12 0 25 -7 13 -7 21 0 25 7 4 7 12 0 25 -7 13 -7 21 0 25 7 4 7 12 0 24 -5 10
-6 21 -3 25 8 8 10 66 2 66 -3 0 -3 20 1 45 4 25 3 48 -2 51 -4 3 -4 13 1 23
5 9 6 23 2 30 -4 7 -6 23 -4 36 4 20 175 -147 1204 -1176 l1199 -1199 2075
2075 c1141 1141 2079 2075 2085 2075 5 0 96 -86 201 -191 105 -104 194 -188
197 -185 6 7 5 122 -2 134 -2 4 -1 14 4 21 4 8 4 27 0 42 -5 16 -5 31 0 34 5
3 5 19 0 35 -5 16 -5 32 0 35 4 3 5 20 1 38 -5 18 -5 41 -1 52 4 11 4 34 -1
52 -4 18 -3 35 1 38 5 3 5 19 0 35 -5 16 -5 32 0 35 5 3 5 19 0 35 -5 16 -5
32 0 35 4 3 5 20 1 38 -5 18 -5 41 -1 52 4 11 4 32 -1 47 -4 15 -4 30 1 33 5
3 5 18 1 33 -5 15 -5 36 -1 47 4 11 4 29 0 41 -5 11 -5 27 0 34 4 7 5 24 1 39
-4 14 -6 37 -4 51 2 14 3 35 3 48 0 28 0 43 1 114 0 32 -2 61 -5 66 -2 4 -1
14 4 22 4 7 4 24 0 36 -6 14 -5 26 0 29 5 3 5 18 0 35 -5 16 -5 32 0 35 4 3 5
20 1 37 -4 18 -6 42 -5 53 1 11 3 31 3 45 1 27 1 29 4 178 1 56 -1 102 -4 102
-4 0 -3 18 1 40 4 22 4 42 0 45 -4 2 -4 24 0 47 3 24 3 58 -1 76 -4 18 -3 35
1 37 5 3 5 19 0 35 -5 16 -5 32 0 35 5 3 5 19 0 35 -5 16 -5 32 0 35 4 3 5 20
1 38 -5 18 -5 41 -1 52 4 11 4 34 -1 52 -4 18 -3 35 1 38 5 3 5 19 0 35 -5 16
-5 32 0 35 5 3 5 19 0 35 -5 18 -5 32 1 36 5 3 7 9 4 15 -8 12 -10 117 -3 125
3 3 2 19 -2 35 -5 16 -5 31 -2 33 6 4 7 62 2 76 -1 3 -2 13 -1 23 2 14 -6 17
-46 18 -26 1 -52 1 -58 -1 -5 -1 -41 -1 -80 0 -38 0 -104 0 -145 0 -100 0
-163 0 -233 3 -31 1 -57 0 -57 -3 0 -3 -21 -4 -47 -3 -27 2 -102 2 -168 2 -66
0 -129 0 -140 0 -11 0 -49 0 -85 0 -36 0 -69 -1 -75 0 -5 0 -64 0 -130 0 -117
0 -137 1 -258 4 -31 1 -57 0 -57 -3 0 -3 -17 -4 -37 -3 -47 2 -133 3 -153 2
-24 -1 -251 0 -295 1 -22 1 -66 2 -98 3 -31 1 -57 0 -57 -3 0 -3 -19 -4 -42
-3 -83 5 -300 4 -304 0 -3 -3 -19 -2 -37 2 -18 3 -69 5 -114 3z"/>
<path d="M10270 17425 c0 -6 23 -48 30 -55 6 -6 20 -32 72 -130 19 -36 49 -89
67 -118 17 -29 31 -55 31 -57 0 -2 22 -41 48 -87 26 -46 56 -99 66 -118 20
-39 36 -68 82 -150 18 -30 43 -76 58 -102 36 -66 72 -131 117 -211 22 -38 39
-72 39 -77 0 -4 7 -13 15 -20 8 -7 13 -16 10 -20 -3 -5 -1 -11 4 -15 5 -3 16
-18 24 -33 7 -15 23 -43 34 -62 11 -19 39 -71 63 -115 24 -44 51 -92 61 -107
11 -14 19 -33 19 -42 0 -9 5 -16 10 -16 6 0 10 -6 10 -12 0 -7 9 -24 20 -38
11 -14 20 -33 20 -42 0 -10 4 -18 8 -18 9 0 29 -37 30 -54 0 -5 4 -12 9 -15 7
-5 18 -24 67 -116 6 -11 16 -23 21 -27 6 -4 6 -8 1 -8 -5 0 -3 -8 5 -17 15
-19 22 -32 70 -120 17 -32 49 -88 70 -126 21 -38 39 -73 39 -78 0 -5 3 -9 8
-9 4 0 13 -13 20 -30 7 -16 44 -85 83 -152 38 -68 69 -128 69 -135 0 -6 4 -13
8 -15 9 -3 12 -9 74 -126 21 -39 42 -73 48 -77 5 -3 10 -15 10 -26 0 -10 3
-19 8 -19 4 0 20 -27 37 -60 16 -33 33 -60 37 -60 4 0 8 -8 8 -19 0 -10 7 -24
15 -31 8 -7 15 -16 15 -21 0 -4 13 -30 28 -56 16 -26 52 -93 82 -148 29 -55
56 -102 59 -105 3 -3 14 -21 23 -40 10 -19 37 -69 60 -111 73 -129 130 -232
158 -284 15 -27 40 -72 55 -100 42 -74 158 -283 190 -340 15 -27 44 -79 64
-115 51 -91 78 -141 93 -170 7 -14 15 -27 18 -30 3 -3 18 -30 34 -60 34 -65
84 -157 101 -185 7 -11 27 -47 45 -80 18 -33 48 -87 67 -120 18 -33 41 -76 51
-95 9 -19 19 -37 23 -40 3 -3 15 -24 26 -47 28 -54 47 -87 53 -93 3 -3 16 -27
30 -55 14 -27 30 -56 37 -63 7 -7 13 -17 13 -22 0 -5 17 -37 37 -72 36 -60 38
-67 39 -155 0 -51 3 -96 7 -99 3 -3 3 -16 -1 -28 -6 -18 -8 -1721 -2 -1736 1
-3 1 -9 0 -15 -6 -30 -4 -155 3 -155 4 0 4 -8 0 -17 -6 -13 -10 -1146 -4
-1230 1 -10 239 -13 1156 -13 l1155 0 0 1701 0 1700 32 57 c17 31 39 71 48 87
9 17 65 118 125 225 59 107 119 215 133 240 14 25 39 70 55 100 16 30 38 67
49 83 11 15 16 27 12 27 -4 0 -1 8 7 18 8 9 28 42 44 72 15 30 33 58 39 62 6
4 7 8 2 8 -5 0 -4 6 2 13 12 14 75 126 100 177 9 19 20 37 23 40 3 3 24 39 46
80 22 41 54 100 71 130 16 30 38 70 48 89 11 19 23 40 27 45 5 6 19 31 32 56
56 105 73 138 100 185 16 28 38 68 49 90 12 22 24 42 27 45 3 3 26 43 51 90
44 82 76 139 125 225 12 22 27 49 32 60 5 11 31 58 58 105 26 47 60 106 73
133 14 26 28 47 32 47 5 0 8 6 8 13 0 6 23 53 51 102 28 50 66 117 84 150 17
33 45 83 60 110 15 28 44 79 63 115 20 36 38 67 41 70 3 3 16 25 29 50 12 25
36 70 53 100 18 30 44 78 60 107 48 89 54 98 64 105 6 4 6 8 1 8 -5 0 -4 6 2
13 5 6 19 28 29 47 35 62 70 126 84 151 8 13 20 32 28 42 8 9 11 17 6 17 -4 0
-3 6 2 13 6 6 22 32 35 57 45 80 68 121 83 144 8 12 12 26 8 29 -3 4 -1 7 5 7
7 0 12 7 12 15 0 8 5 15 10 15 6 0 10 6 10 13 0 6 27 59 60 116 33 57 60 108
60 113 0 4 5 8 10 8 6 0 9 3 8 8 -2 7 12 35 51 102 12 19 27 46 33 60 7 14 15
27 18 30 3 3 15 25 28 50 12 25 33 63 46 85 12 22 40 72 61 110 20 39 45 81
54 95 10 14 23 40 30 58 8 17 17 32 22 32 5 0 9 7 9 16 0 8 11 32 25 52 14 20
25 41 25 47 0 6 9 21 20 33 12 12 19 22 16 22 -5 0 148 279 162 296 5 6 13 20
16 32 l7 22 -1263 0 c-695 0 -1267 -4 -1273 -8 -5 -4 -27 -41 -48 -82 -21 -41
-54 -104 -73 -140 -20 -36 -57 -105 -82 -155 -26 -49 -49 -92 -52 -95 -3 -3
-19 -32 -36 -65 -47 -91 -114 -215 -139 -260 -12 -22 -42 -78 -65 -125 -24
-47 -46 -87 -49 -90 -3 -3 -26 -43 -50 -90 -52 -101 -113 -216 -151 -285 -15
-27 -51 -95 -80 -150 -29 -55 -65 -122 -80 -150 -27 -49 -87 -161 -139 -260
-14 -27 -30 -53 -34 -56 -5 -3 -8 -9 -8 -13 2 -11 -51 -111 -60 -114 -5 -2 -9
-11 -9 -21 0 -9 -4 -21 -9 -27 -4 -5 -26 -43 -49 -84 -22 -41 -71 -133 -109
-205 -39 -71 -88 -164 -109 -205 -21 -41 -41 -77 -44 -80 -3 -3 -16 -27 -30
-55 -13 -27 -37 -71 -52 -96 -15 -25 -28 -54 -28 -63 0 -9 -4 -16 -8 -16 -9 0
-37 -50 -34 -62 2 -8 -27 -32 -32 -27 -2 2 -29 53 -60 113 -31 60 -61 115 -67
122 -6 8 -8 14 -5 14 4 0 0 7 -8 16 -9 8 -14 20 -11 25 4 5 2 9 -2 9 -5 0 -16
15 -24 33 -38 79 -92 178 -100 183 -5 3 -9 14 -9 25 0 10 -4 19 -9 19 -5 0
-14 12 -20 28 -5 15 -30 63 -54 107 -24 44 -59 109 -78 145 -19 36 -36 67 -39
70 -3 3 -17 30 -32 60 -15 30 -50 98 -79 150 -28 52 -65 122 -82 155 -17 33
-37 68 -46 78 -8 9 -11 17 -6 17 4 0 2 6 -4 14 -6 7 -27 44 -47 82 -38 71 -94
177 -147 274 -16 30 -49 91 -72 135 -64 120 -124 233 -160 300 -18 33 -54 101
-80 150 -26 50 -52 96 -58 104 -6 7 -12 18 -13 25 -1 6 -20 44 -43 85 -23 41
-41 78 -41 82 0 5 -4 9 -8 9 -4 0 -14 17 -21 38 -8 20 -17 39 -20 42 -4 3 -18
28 -32 55 -22 43 -74 139 -147 275 l-19 35 -1277 3 c-702 1 -1276 0 -1276 -3z"/>
<path d="M8396 12158 c-900 -902 -1110 -1117 -1116 -1144 -4 -19 -4 -34 1 -34
5 0 4 -11 -1 -25 -5 -13 -6 -26 -2 -29 9 -5 7 -70 -2 -85 -4 -5 -2 -12 4 -16
6 -4 7 -13 1 -23 -6 -11 -6 -24 0 -34 6 -10 6 -19 0 -23 -7 -3 -7 -15 -1 -30
6 -15 6 -27 0 -30 -7 -4 -7 -13 0 -24 6 -12 5 -22 -1 -28 -8 -8 -7 -13 0 -17
7 -5 8 -13 2 -25 -6 -10 -6 -23 -1 -31 5 -8 5 -21 -1 -31 -6 -11 -5 -20 1 -24
6 -4 7 -13 1 -23 -6 -11 -6 -24 0 -34 6 -10 6 -19 0 -23 -7 -3 -7 -15 -1 -30
6 -15 6 -27 0 -30 -7 -4 -6 -13 0 -25 7 -13 7 -21 0 -25 -8 -5 -8 -11 -1 -19
6 -7 8 -15 5 -19 -9 -9 -11 -78 -2 -83 4 -3 3 -16 -2 -29 -5 -13 -6 -26 -1
-29 4 -3 5 -28 1 -56 -4 -27 -3 -50 2 -50 4 0 3 -11 -2 -25 -5 -13 -6 -26 -2
-29 5 -3 5 -30 2 -60 -3 -31 -3 -56 2 -56 4 0 3 -11 -2 -25 -5 -13 -6 -26 -2
-29 9 -5 7 -70 -2 -85 -4 -5 -2 -12 4 -16 6 -4 7 -13 1 -23 -6 -11 -6 -24 0
-34 6 -10 6 -19 0 -23 -7 -3 -7 -15 -1 -30 6 -15 6 -27 0 -30 -7 -4 -6 -13 0
-25 7 -13 7 -21 0 -25 -8 -5 -8 -11 -1 -19 6 -7 8 -15 5 -19 -9 -8 -10 -97 -2
-97 4 0 3 -11 -2 -25 -5 -13 -5 -27 -1 -29 5 -3 5 -24 1 -46 -4 -22 -4 -43 1
-46 4 -2 4 -16 -1 -29 -5 -13 -6 -26 -1 -29 4 -3 5 -28 1 -56 -4 -27 -3 -50 2
-50 4 0 3 -11 -2 -25 -5 -13 -5 -27 -1 -30 5 -3 5 -21 1 -40 -4 -19 -4 -37 1
-40 4 -3 5 -13 2 -22 -8 -21 -8 -81 0 -89 3 -4 2 -14 -3 -24 -5 -10 -7 -20 -4
-23 9 -9 10 -78 2 -83 -5 -3 -4 -13 2 -23 5 -10 6 -21 3 -25 -5 -5 74 -11 99
-7 4 0 38 1 75 1 37 0 93 0 123 1 262 4 310 3 310 -4 0 -5 4 -6 9 -3 5 3 40 6
77 6 38 0 89 0 114 1 25 1 52 1 60 1 41 -2 244 -1 308 1 39 1 72 -2 72 -6 0
-5 4 -6 9 -3 5 3 40 6 77 6 38 0 89 0 114 1 25 1 52 1 60 1 41 -2 244 -1 308
1 39 1 72 0 72 -3 0 -3 42 -4 92 -2 51 1 132 3 181 3 48 0 85 4 82 8 -4 8 -5
25 -6 141 0 73 0 101 2 177 0 28 -2 56 -5 62 -4 5 -2 12 3 15 5 4 6 18 2 34
-5 15 -5 36 -1 47 4 11 4 32 -1 47 -4 15 -4 30 1 33 5 3 5 18 1 33 -5 15 -5
36 -1 47 4 11 4 32 -1 47 -4 15 -4 30 1 33 5 3 5 18 1 33 -5 15 -5 36 -1 47 4
11 4 32 -1 47 -4 15 -4 30 1 33 5 3 5 18 1 33 -5 15 -5 36 -1 47 4 11 4 31 0
45 -4 14 -4 34 0 45 4 11 4 29 0 40 -4 11 -4 29 0 40 4 11 4 30 -1 41 -4 12
-5 24 -2 27 2 3 4 32 4 64 -1 60 -2 83 -1 178 0 30 0 62 0 70 0 8 0 26 0 40 0
14 -1 31 -1 38 0 6 0 26 0 42 1 17 1 38 1 48 0 9 0 24 0 32 0 17 0 57 0 83 0
9 1 33 1 52 0 19 0 55 -1 80 -1 51 -1 77 1 154 1 30 -1 58 -3 62 -3 5 -2 18 2
29 4 11 4 29 0 41 -5 11 -5 27 0 34 4 7 4 26 0 41 -5 16 -5 31 0 34 5 3 5 18
1 33 -5 15 -5 36 -1 47 4 11 4 32 -1 47 -4 15 -4 30 1 33 5 3 5 18 1 33 -5 15
-5 36 -1 47 4 11 4 32 -1 47 -4 15 -4 30 1 33 5 3 5 18 1 33 -5 15 -5 36 -1
47 4 11 4 32 -1 47 -4 15 -4 30 1 33 4 3 5 17 1 33 -4 15 -4 44 -1 65 4 20 3
40 -1 43 -5 3 -6 10 -3 16 4 6 6 38 5 72 -1 33 -2 73 -2 89 0 24 1 109 1 152
0 8 0 26 0 40 0 14 0 32 0 40 0 8 0 26 0 40 0 14 0 31 -1 38 0 6 0 39 0 72 0
33 1 75 0 93 0 17 0 57 1 87 0 30 0 62 0 70 0 8 0 26 0 40 0 14 0 32 0 40 0 8
0 26 0 40 0 14 0 31 -1 38 0 6 0 39 0 72 0 33 1 76 1 95 0 19 0 58 1 87 0 28
-2 56 -5 62 -4 5 -2 12 3 15 5 4 6 18 2 34 -5 15 -5 36 -1 47 4 11 4 32 -1 47
-4 15 -4 30 1 33 5 3 5 18 0 34 -4 15 -4 34 0 41 4 6 4 27 0 46 -4 19 -4 34 0
34 5 0 5 13 0 29 -4 16 -6 32 -2 35 3 3 1 6 -4 5 -5 0 -508 -500 -1118 -1111z"/>
</g>
</svg>
